<mxfile host="app.diagrams.net" modified="2024-03-04T21:27:17.101Z" agent="Mozilla/5.0 (Windows NT 10.0; Win64; x64; rv:123.0) Gecko/20100101 Firefox/123.0" etag="mDRWDSxZgJwVSYO6vQ4s" version="21.2.1" type="device">
  <diagram name="Page-1" id="rrnRkHXitlQrABg2udhg">
    <mxGraphModel dx="1562" dy="1954" grid="1" gridSize="10" guides="1" tooltips="1" connect="1" arrows="1" fold="1" page="1" pageScale="1" pageWidth="850" pageHeight="1100" math="0" shadow="0">
      <root>
        <mxCell id="0" />
        <mxCell id="1" parent="0" />
        <mxCell id="P7kzn_tiCY3FyH7NPitg-13" value="" style="endArrow=none;html=1;rounded=0;exitX=0.25;exitY=0;exitDx=0;exitDy=0;entryX=1;entryY=0;entryDx=0;entryDy=0;" parent="1" edge="1" target="P7kzn_tiCY3FyH7NPitg-22" source="P7kzn_tiCY3FyH7NPitg-21">
          <mxGeometry width="50" height="50" relative="1" as="geometry">
            <mxPoint x="270" y="80" as="sourcePoint" />
            <mxPoint x="515" y="80" as="targetPoint" />
          </mxGeometry>
        </mxCell>
        <mxCell id="P7kzn_tiCY3FyH7NPitg-14" value="" style="endArrow=none;html=1;rounded=0;" parent="1" source="P7kzn_tiCY3FyH7NPitg-17" edge="1">
          <mxGeometry width="50" height="50" relative="1" as="geometry">
            <mxPoint x="272" y="60" as="sourcePoint" />
            <mxPoint x="510" y="56" as="targetPoint" />
            <Array as="points">
              <mxPoint x="310" y="20" />
              <mxPoint x="470" y="20" />
            </Array>
          </mxGeometry>
        </mxCell>
        <mxCell id="P7kzn_tiCY3FyH7NPitg-17" value="1" style="ellipse;whiteSpace=wrap;html=1;aspect=fixed;" parent="1" vertex="1">
          <mxGeometry x="235" y="63" width="35" height="35" as="geometry" />
        </mxCell>
        <mxCell id="P7kzn_tiCY3FyH7NPitg-18" value="2" style="ellipse;whiteSpace=wrap;html=1;aspect=fixed;" parent="1" vertex="1">
          <mxGeometry x="515" y="63" width="35" height="35" as="geometry" />
        </mxCell>
        <mxCell id="P7kzn_tiCY3FyH7NPitg-20" value="Ablenkung" style="text;html=1;align=center;verticalAlign=middle;whiteSpace=wrap;rounded=0;rotation=-45;" parent="1" vertex="1">
          <mxGeometry x="242" y="20" width="60" height="30" as="geometry" />
        </mxCell>
        <mxCell id="P7kzn_tiCY3FyH7NPitg-21" value="Gerade" style="text;html=1;align=center;verticalAlign=middle;whiteSpace=wrap;rounded=0;" parent="1" vertex="1">
          <mxGeometry x="270" y="80" width="60" height="30" as="geometry" />
        </mxCell>
        <mxCell id="P7kzn_tiCY3FyH7NPitg-22" value="Gerade" style="text;html=1;align=center;verticalAlign=middle;whiteSpace=wrap;rounded=0;" parent="1" vertex="1">
          <mxGeometry x="455" y="80" width="60" height="30" as="geometry" />
        </mxCell>
        <mxCell id="P7kzn_tiCY3FyH7NPitg-24" value="Ablenkung" style="text;html=1;align=center;verticalAlign=middle;whiteSpace=wrap;rounded=0;rotation=45;" parent="1" vertex="1">
          <mxGeometry x="482" y="20" width="60" height="30" as="geometry" />
        </mxCell>
        <mxCell id="WW9zQPvhFUUDWIKTXfTS-3" value="" style="endArrow=none;html=1;rounded=0;" edge="1" parent="1" source="P7kzn_tiCY3FyH7NPitg-17" target="P7kzn_tiCY3FyH7NPitg-18">
          <mxGeometry width="50" height="50" relative="1" as="geometry">
            <mxPoint x="140" y="80.5" as="sourcePoint" />
            <mxPoint x="645" y="80.5" as="targetPoint" />
            <Array as="points">
              <mxPoint x="100" y="80" />
              <mxPoint x="100" y="120" />
              <mxPoint x="610" y="120" />
              <mxPoint x="610" y="80" />
            </Array>
          </mxGeometry>
        </mxCell>
        <mxCell id="WW9zQPvhFUUDWIKTXfTS-4" value="Anfang" style="text;html=1;align=center;verticalAlign=middle;whiteSpace=wrap;rounded=0;" vertex="1" parent="1">
          <mxGeometry x="550" y="80" width="60" height="30" as="geometry" />
        </mxCell>
        <mxCell id="WW9zQPvhFUUDWIKTXfTS-7" value="Zug" style="shape=step;perimeter=stepPerimeter;whiteSpace=wrap;html=1;fixedSize=1;direction=east;rotation=-40;" vertex="1" parent="1">
          <mxGeometry x="210" y="68" width="70" height="30" as="geometry" />
        </mxCell>
        <mxCell id="WW9zQPvhFUUDWIKTXfTS-6" value="Anfang" style="text;html=1;align=center;verticalAlign=middle;whiteSpace=wrap;rounded=0;" vertex="1" parent="1">
          <mxGeometry x="120" y="80" width="60" height="30" as="geometry" />
        </mxCell>
        <mxCell id="WW9zQPvhFUUDWIKTXfTS-13" value="Gleis 1" style="text;html=1;strokeColor=none;fillColor=none;align=center;verticalAlign=middle;whiteSpace=wrap;rounded=0;" vertex="1" parent="1">
          <mxGeometry x="360" y="-10" width="60" height="30" as="geometry" />
        </mxCell>
        <mxCell id="WW9zQPvhFUUDWIKTXfTS-15" value="Gleis 2" style="text;html=1;strokeColor=none;fillColor=none;align=center;verticalAlign=middle;whiteSpace=wrap;rounded=0;" vertex="1" parent="1">
          <mxGeometry x="360" y="50" width="60" height="30" as="geometry" />
        </mxCell>
      </root>
    </mxGraphModel>
  </diagram>
</mxfile>
